<mxfile modified="2019-10-24T08:38:41.646Z" host="www.draw.io" agent="Mozilla/5.0 (Windows NT 10.0; Win64; x64) AppleWebKit/537.36 (KHTML, like Gecko) Chrome/77.0.3865.120 Safari/537.36" etag="eGNpAQ_6T6ZobhwMUZ2N" version="12.1.4" type="github" pages="1">
  <diagram id="LGbj_nc2hdgQ7Wxbu6nX" name="Page-1">
    <mxGraphModel dx="1937" dy="2115" grid="1" gridSize="10" guides="1" tooltips="1" connect="1" arrows="1" fold="1" page="1" pageScale="1" pageWidth="1169" pageHeight="827" math="0" shadow="0">
      <root>
        <mxCell id="0"/>
        <mxCell id="1" parent="0"/>
        <mxCell id="QuA0I-AF730Cx4V34Tnm-2" value="&lt;font style=&quot;font-size: 14px&quot;&gt;&lt;b&gt;aim: find and book a hotel&lt;/b&gt;&lt;br&gt;1. hotel name(mandatory)&lt;br&gt;2. area (default: NULL)&lt;br&gt;3. start date (mandatory)&lt;br&gt;4. leave date (mandatory)&lt;br&gt;5. people number (mandatory)&lt;br&gt;6. room number (mandatory)&lt;br&gt;&lt;br&gt;&lt;/font&gt;" style="text;html=1;strokeColor=none;fillColor=none;align=left;verticalAlign=middle;whiteSpace=wrap;rounded=0;" parent="1" vertex="1">
          <mxGeometry x="626.5" y="-1400" width="220" height="113" as="geometry"/>
        </mxCell>
        <mxCell id="QuA0I-AF730Cx4V34Tnm-3" style="edgeStyle=orthogonalEdgeStyle;rounded=0;orthogonalLoop=1;jettySize=auto;html=1;exitX=0;exitY=0.5;exitDx=0;exitDy=0;entryX=0.5;entryY=0;entryDx=0;entryDy=0;" parent="1" source="QuA0I-AF730Cx4V34Tnm-56" target="QuA0I-AF730Cx4V34Tnm-17" edge="1">
          <mxGeometry relative="1" as="geometry">
            <Array as="points">
              <mxPoint x="664.5" y="-863.5"/>
            </Array>
          </mxGeometry>
        </mxCell>
        <mxCell id="QuA0I-AF730Cx4V34Tnm-4" value="if 2" style="text;html=1;resizable=0;points=[];align=center;verticalAlign=middle;labelBackgroundColor=#ffffff;" parent="QuA0I-AF730Cx4V34Tnm-3" vertex="1" connectable="0">
          <mxGeometry x="0.4249" y="-1" relative="1" as="geometry">
            <mxPoint x="1" y="-24.5" as="offset"/>
          </mxGeometry>
        </mxCell>
        <mxCell id="QuA0I-AF730Cx4V34Tnm-5" style="edgeStyle=orthogonalEdgeStyle;rounded=0;orthogonalLoop=1;jettySize=auto;html=1;exitX=1;exitY=0.5;exitDx=0;exitDy=0;entryX=0.5;entryY=0;entryDx=0;entryDy=0;" parent="1" source="QuA0I-AF730Cx4V34Tnm-56" target="QuA0I-AF730Cx4V34Tnm-36" edge="1">
          <mxGeometry relative="1" as="geometry">
            <mxPoint x="901.5" y="-792.5" as="targetPoint"/>
          </mxGeometry>
        </mxCell>
        <mxCell id="QuA0I-AF730Cx4V34Tnm-6" value="no 2" style="text;html=1;resizable=0;points=[];align=center;verticalAlign=middle;labelBackgroundColor=#ffffff;" parent="QuA0I-AF730Cx4V34Tnm-5" vertex="1" connectable="0">
          <mxGeometry x="-0.0701" y="5" relative="1" as="geometry">
            <mxPoint x="-4.5" y="14.5" as="offset"/>
          </mxGeometry>
        </mxCell>
        <mxCell id="QuA0I-AF730Cx4V34Tnm-7" style="edgeStyle=orthogonalEdgeStyle;rounded=0;orthogonalLoop=1;jettySize=auto;html=1;exitX=0.5;exitY=1;exitDx=0;exitDy=0;entryX=1;entryY=0.5;entryDx=0;entryDy=0;" parent="1" source="QuA0I-AF730Cx4V34Tnm-53" target="QuA0I-AF730Cx4V34Tnm-43" edge="1">
          <mxGeometry relative="1" as="geometry">
            <Array as="points">
              <mxPoint x="212" y="-540.5"/>
            </Array>
          </mxGeometry>
        </mxCell>
        <mxCell id="QuA0I-AF730Cx4V34Tnm-8" value="no 6" style="text;html=1;resizable=0;points=[];align=center;verticalAlign=middle;labelBackgroundColor=#ffffff;" parent="QuA0I-AF730Cx4V34Tnm-7" vertex="1" connectable="0">
          <mxGeometry x="0.4525" y="2" relative="1" as="geometry">
            <mxPoint x="-32.5" y="6" as="offset"/>
          </mxGeometry>
        </mxCell>
        <mxCell id="QuA0I-AF730Cx4V34Tnm-9" value="if 1" style="edgeStyle=orthogonalEdgeStyle;rounded=0;orthogonalLoop=1;jettySize=auto;html=1;exitX=0;exitY=0.5;exitDx=0;exitDy=0;entryX=0.5;entryY=0;entryDx=0;entryDy=0;" parent="1" source="QuA0I-AF730Cx4V34Tnm-14" target="QuA0I-AF730Cx4V34Tnm-53" edge="1">
          <mxGeometry relative="1" as="geometry"/>
        </mxCell>
        <mxCell id="QuA0I-AF730Cx4V34Tnm-10" style="edgeStyle=orthogonalEdgeStyle;rounded=0;orthogonalLoop=1;jettySize=auto;html=1;exitX=0;exitY=0;exitDx=0;exitDy=0;entryX=0.5;entryY=1;entryDx=0;entryDy=0;" parent="1" source="QuA0I-AF730Cx4V34Tnm-14" target="QuA0I-AF730Cx4V34Tnm-55" edge="1">
          <mxGeometry relative="1" as="geometry"/>
        </mxCell>
        <mxCell id="QuA0I-AF730Cx4V34Tnm-11" style="edgeStyle=orthogonalEdgeStyle;rounded=0;orthogonalLoop=1;jettySize=auto;html=1;exitX=1;exitY=0.5;exitDx=0;exitDy=0;entryX=0.5;entryY=0;entryDx=0;entryDy=0;" parent="1" source="QuA0I-AF730Cx4V34Tnm-14" target="QuA0I-AF730Cx4V34Tnm-56" edge="1">
          <mxGeometry relative="1" as="geometry"/>
        </mxCell>
        <mxCell id="QuA0I-AF730Cx4V34Tnm-12" value="no 1" style="text;html=1;resizable=0;points=[];align=center;verticalAlign=middle;labelBackgroundColor=#ffffff;" parent="QuA0I-AF730Cx4V34Tnm-11" vertex="1" connectable="0">
          <mxGeometry x="-0.2846" relative="1" as="geometry">
            <mxPoint as="offset"/>
          </mxGeometry>
        </mxCell>
        <mxCell id="QuA0I-AF730Cx4V34Tnm-13" value="all is ok" style="edgeStyle=orthogonalEdgeStyle;rounded=0;orthogonalLoop=1;jettySize=auto;html=1;exitX=0.5;exitY=1;exitDx=0;exitDy=0;entryX=0.5;entryY=0;entryDx=0;entryDy=0;" parent="1" source="QuA0I-AF730Cx4V34Tnm-14" target="QuA0I-AF730Cx4V34Tnm-45" edge="1">
          <mxGeometry relative="1" as="geometry"/>
        </mxCell>
        <mxCell id="QuA0I-AF730Cx4V34Tnm-14" value="&lt;font style=&quot;font-size: 14px&quot;&gt;slot 1, 2, 3, 4, 5, 6?&lt;br&gt;&lt;/font&gt;" style="rhombus;whiteSpace=wrap;html=1;" parent="1" vertex="1">
          <mxGeometry x="376" y="-944" width="157" height="60" as="geometry"/>
        </mxCell>
        <mxCell id="QuA0I-AF730Cx4V34Tnm-15" style="edgeStyle=orthogonalEdgeStyle;rounded=0;orthogonalLoop=1;jettySize=auto;html=1;exitX=1;exitY=0.75;exitDx=0;exitDy=0;entryX=0.894;entryY=0.512;entryDx=0;entryDy=0;entryPerimeter=0;" parent="1" source="QuA0I-AF730Cx4V34Tnm-36" target="QuA0I-AF730Cx4V34Tnm-35" edge="1">
          <mxGeometry relative="1" as="geometry">
            <Array as="points">
              <mxPoint x="927" y="-739"/>
              <mxPoint x="973" y="-739"/>
              <mxPoint x="973" y="-1203"/>
            </Array>
            <mxPoint x="903" y="-834.5" as="sourcePoint"/>
            <mxPoint x="523" y="-1080.5" as="targetPoint"/>
          </mxGeometry>
        </mxCell>
        <mxCell id="QuA0I-AF730Cx4V34Tnm-16" style="edgeStyle=orthogonalEdgeStyle;rounded=0;orthogonalLoop=1;jettySize=auto;html=1;exitX=0.5;exitY=1;exitDx=0;exitDy=0;entryX=0.5;entryY=0;entryDx=0;entryDy=0;" parent="1" source="QuA0I-AF730Cx4V34Tnm-17" target="QuA0I-AF730Cx4V34Tnm-37" edge="1">
          <mxGeometry relative="1" as="geometry">
            <mxPoint x="641.5" y="-686.5" as="targetPoint"/>
          </mxGeometry>
        </mxCell>
        <mxCell id="QuA0I-AF730Cx4V34Tnm-17" value="&lt;span style=&quot;font-size: 14px&quot;&gt;search hotels in 2&lt;/span&gt;" style="rounded=1;whiteSpace=wrap;html=1;" parent="1" vertex="1">
          <mxGeometry x="592.5" y="-776.5" width="144" height="50" as="geometry"/>
        </mxCell>
        <mxCell id="QuA0I-AF730Cx4V34Tnm-18" style="edgeStyle=orthogonalEdgeStyle;rounded=0;orthogonalLoop=1;jettySize=auto;html=1;exitX=1;exitY=0.5;exitDx=0;exitDy=0;entryX=0.895;entryY=0.513;entryDx=0;entryDy=0;entryPerimeter=0;" parent="1" source="QuA0I-AF730Cx4V34Tnm-37" target="QuA0I-AF730Cx4V34Tnm-35" edge="1">
          <mxGeometry relative="1" as="geometry">
            <Array as="points">
              <mxPoint x="973" y="-633"/>
              <mxPoint x="973" y="-1203"/>
            </Array>
            <mxPoint x="647" y="-661.5" as="sourcePoint"/>
            <mxPoint x="533" y="-1081.5" as="targetPoint"/>
          </mxGeometry>
        </mxCell>
        <mxCell id="QuA0I-AF730Cx4V34Tnm-19" value="no 4" style="edgeStyle=orthogonalEdgeStyle;rounded=0;orthogonalLoop=1;jettySize=auto;html=1;exitX=0.5;exitY=1;exitDx=0;exitDy=0;entryX=1;entryY=0.5;entryDx=0;entryDy=0;" parent="1" source="QuA0I-AF730Cx4V34Tnm-53" target="QuA0I-AF730Cx4V34Tnm-41" edge="1">
          <mxGeometry x="0.1535" y="-31" relative="1" as="geometry">
            <mxPoint x="115.14285714285711" y="-704.2142857142857" as="targetPoint"/>
            <mxPoint x="167.64705882352928" y="-703.7352941176471" as="sourcePoint"/>
            <Array as="points">
              <mxPoint x="212" y="-702.5"/>
            </Array>
            <mxPoint x="-31" y="31" as="offset"/>
          </mxGeometry>
        </mxCell>
        <mxCell id="QuA0I-AF730Cx4V34Tnm-20" style="edgeStyle=orthogonalEdgeStyle;rounded=0;orthogonalLoop=1;jettySize=auto;html=1;exitX=0;exitY=0.5;exitDx=0;exitDy=0;entryX=0;entryY=0.25;entryDx=0;entryDy=0;" parent="1" source="QuA0I-AF730Cx4V34Tnm-42" target="QuA0I-AF730Cx4V34Tnm-35" edge="1">
          <mxGeometry relative="1" as="geometry">
            <Array as="points">
              <mxPoint x="-21" y="-622"/>
              <mxPoint x="-66" y="-622"/>
              <mxPoint x="-66" y="-1213"/>
            </Array>
            <mxPoint x="-28.85714285714289" y="-574.2142857142857" as="sourcePoint"/>
            <mxPoint x="383" y="-1013.5" as="targetPoint"/>
          </mxGeometry>
        </mxCell>
        <mxCell id="QuA0I-AF730Cx4V34Tnm-21" value="no 5" style="edgeStyle=orthogonalEdgeStyle;rounded=0;orthogonalLoop=1;jettySize=auto;html=1;exitX=0.5;exitY=1;exitDx=0;exitDy=0;entryX=1;entryY=0.5;entryDx=0;entryDy=0;" parent="1" source="QuA0I-AF730Cx4V34Tnm-53" target="QuA0I-AF730Cx4V34Tnm-42" edge="1">
          <mxGeometry x="0.3546" y="-31" relative="1" as="geometry">
            <mxPoint x="115.14285714285711" y="-564.2142857142857" as="targetPoint"/>
            <mxPoint x="167.64705882352928" y="-563.7352941176468" as="sourcePoint"/>
            <Array as="points">
              <mxPoint x="212" y="-622.5"/>
              <mxPoint x="203" y="-622.5"/>
            </Array>
            <mxPoint x="-31" y="31" as="offset"/>
          </mxGeometry>
        </mxCell>
        <mxCell id="QuA0I-AF730Cx4V34Tnm-22" style="edgeStyle=orthogonalEdgeStyle;rounded=0;orthogonalLoop=1;jettySize=auto;html=1;exitX=0;exitY=0.5;exitDx=0;exitDy=0;entryX=0;entryY=0.25;entryDx=0;entryDy=0;" parent="1" source="QuA0I-AF730Cx4V34Tnm-43" target="QuA0I-AF730Cx4V34Tnm-35" edge="1">
          <mxGeometry relative="1" as="geometry">
            <Array as="points">
              <mxPoint x="-66" y="-540"/>
              <mxPoint x="-66" y="-1213"/>
            </Array>
            <mxPoint x="-28.85714285714289" y="-434.2142857142858" as="sourcePoint"/>
            <mxPoint x="383" y="-1013.5" as="targetPoint"/>
          </mxGeometry>
        </mxCell>
        <mxCell id="QuA0I-AF730Cx4V34Tnm-23" value="yes" style="edgeStyle=orthogonalEdgeStyle;rounded=0;orthogonalLoop=1;jettySize=auto;html=1;exitX=0.5;exitY=1;exitDx=0;exitDy=0;" parent="1" source="QuA0I-AF730Cx4V34Tnm-30" target="QuA0I-AF730Cx4V34Tnm-48" edge="1">
          <mxGeometry relative="1" as="geometry">
            <Array as="points">
              <mxPoint x="454" y="-390"/>
              <mxPoint x="332" y="-390"/>
            </Array>
            <mxPoint x="453.92857142857156" y="-366.4999999999998" as="targetPoint"/>
          </mxGeometry>
        </mxCell>
        <mxCell id="QuA0I-AF730Cx4V34Tnm-24" style="edgeStyle=orthogonalEdgeStyle;rounded=0;orthogonalLoop=1;jettySize=auto;html=1;exitX=1;exitY=0.5;exitDx=0;exitDy=0;entryX=1;entryY=0.5;entryDx=0;entryDy=0;" parent="1" source="QuA0I-AF730Cx4V34Tnm-30" target="QuA0I-AF730Cx4V34Tnm-50" edge="1">
          <mxGeometry relative="1" as="geometry">
            <Array as="points">
              <mxPoint x="1022" y="-446.5"/>
              <mxPoint x="1022" y="-1001.5"/>
            </Array>
          </mxGeometry>
        </mxCell>
        <mxCell id="QuA0I-AF730Cx4V34Tnm-25" value="&lt;span style=&quot;text-align: left ; background-color: rgb(248 , 249 , 250)&quot;&gt;no but with changing values&lt;/span&gt;" style="text;html=1;resizable=0;points=[];align=center;verticalAlign=middle;labelBackgroundColor=#ffffff;" parent="QuA0I-AF730Cx4V34Tnm-24" vertex="1" connectable="0">
          <mxGeometry x="-0.8803" y="-1" relative="1" as="geometry">
            <mxPoint x="38.5" y="-1" as="offset"/>
          </mxGeometry>
        </mxCell>
        <mxCell id="QuA0I-AF730Cx4V34Tnm-26" style="edgeStyle=orthogonalEdgeStyle;rounded=0;orthogonalLoop=1;jettySize=auto;html=1;exitX=0;exitY=0.5;exitDx=0;exitDy=0;entryX=1;entryY=0.5;entryDx=0;entryDy=0;" parent="1" source="QuA0I-AF730Cx4V34Tnm-30" target="QuA0I-AF730Cx4V34Tnm-32" edge="1">
          <mxGeometry relative="1" as="geometry">
            <Array as="points">
              <mxPoint x="283" y="-446.5"/>
              <mxPoint x="283" y="-447.5"/>
            </Array>
          </mxGeometry>
        </mxCell>
        <mxCell id="QuA0I-AF730Cx4V34Tnm-27" value="no without new values" style="text;html=1;resizable=0;points=[];align=center;verticalAlign=middle;labelBackgroundColor=#ffffff;" parent="QuA0I-AF730Cx4V34Tnm-26" vertex="1" connectable="0">
          <mxGeometry x="-0.9394" y="2" relative="1" as="geometry">
            <mxPoint x="-66" y="-2.5" as="offset"/>
          </mxGeometry>
        </mxCell>
        <mxCell id="QuA0I-AF730Cx4V34Tnm-28" style="edgeStyle=orthogonalEdgeStyle;rounded=0;orthogonalLoop=1;jettySize=auto;html=1;exitX=1;exitY=0;exitDx=0;exitDy=0;entryX=0.5;entryY=1;entryDx=0;entryDy=0;" parent="1" source="QuA0I-AF730Cx4V34Tnm-30" target="QuA0I-AF730Cx4V34Tnm-58" edge="1">
          <mxGeometry relative="1" as="geometry"/>
        </mxCell>
        <mxCell id="QuA0I-AF730Cx4V34Tnm-29" value="nothing about hotel" style="text;html=1;resizable=0;points=[];align=center;verticalAlign=middle;labelBackgroundColor=#ffffff;" parent="QuA0I-AF730Cx4V34Tnm-28" vertex="1" connectable="0">
          <mxGeometry x="-0.5987" relative="1" as="geometry">
            <mxPoint x="50" y="-5" as="offset"/>
          </mxGeometry>
        </mxCell>
        <mxCell id="QuA0I-AF730Cx4V34Tnm-69" value="give up" style="edgeStyle=orthogonalEdgeStyle;rounded=0;orthogonalLoop=1;jettySize=auto;html=1;exitX=0.5;exitY=1;exitDx=0;exitDy=0;entryX=0.5;entryY=0;entryDx=0;entryDy=0;entryPerimeter=0;" parent="1" source="QuA0I-AF730Cx4V34Tnm-30" target="QuA0I-AF730Cx4V34Tnm-68" edge="1">
          <mxGeometry relative="1" as="geometry">
            <Array as="points">
              <mxPoint x="454" y="-390"/>
              <mxPoint x="576" y="-390"/>
            </Array>
          </mxGeometry>
        </mxCell>
        <mxCell id="QuA0I-AF730Cx4V34Tnm-30" value="&lt;font style=&quot;font-size: 14px&quot;&gt;ok?&lt;br&gt;&lt;/font&gt;" style="rhombus;whiteSpace=wrap;html=1;" parent="1" vertex="1">
          <mxGeometry x="375.5" y="-476.5" width="157" height="60" as="geometry"/>
        </mxCell>
        <mxCell id="QuA0I-AF730Cx4V34Tnm-31" style="edgeStyle=orthogonalEdgeStyle;rounded=0;orthogonalLoop=1;jettySize=auto;html=1;exitX=0;exitY=0.5;exitDx=0;exitDy=0;entryX=0.25;entryY=0;entryDx=0;entryDy=0;" parent="1" source="QuA0I-AF730Cx4V34Tnm-32" target="QuA0I-AF730Cx4V34Tnm-35" edge="1">
          <mxGeometry relative="1" as="geometry">
            <Array as="points">
              <mxPoint x="-19" y="-449"/>
              <mxPoint x="-118" y="-449"/>
              <mxPoint x="-118" y="-1260"/>
              <mxPoint x="409" y="-1260"/>
            </Array>
          </mxGeometry>
        </mxCell>
        <mxCell id="QuA0I-AF730Cx4V34Tnm-32" value="&lt;font style=&quot;font-size: 14px&quot;&gt;&amp;nbsp; &amp;nbsp;robot:&amp;nbsp;&lt;/font&gt;&lt;span style=&quot;font-size: 14px&quot;&gt;query demands&lt;br&gt;&amp;nbsp;and offer hotels list&lt;/span&gt;" style="shape=parallelogram;perimeter=parallelogramPerimeter;whiteSpace=wrap;html=1;" parent="1" vertex="1">
          <mxGeometry x="-37" y="-473.83333333333337" width="182" height="53" as="geometry"/>
        </mxCell>
        <mxCell id="QuA0I-AF730Cx4V34Tnm-60" style="edgeStyle=orthogonalEdgeStyle;rounded=0;orthogonalLoop=1;jettySize=auto;html=1;exitX=0.5;exitY=1;exitDx=0;exitDy=0;exitPerimeter=0;entryX=0.5;entryY=0;entryDx=0;entryDy=0;" parent="1" source="QuA0I-AF730Cx4V34Tnm-33" target="QuA0I-AF730Cx4V34Tnm-59" edge="1">
          <mxGeometry relative="1" as="geometry"/>
        </mxCell>
        <mxCell id="QuA0I-AF730Cx4V34Tnm-33" value="&lt;span style=&quot;font-size: 14px&quot;&gt;start&lt;/span&gt;" style="strokeWidth=2;html=1;shape=mxgraph.flowchart.terminator;whiteSpace=wrap;" parent="1" vertex="1">
          <mxGeometry x="403.5" y="-1429.9814758300781" width="100" height="60" as="geometry"/>
        </mxCell>
        <mxCell id="QuA0I-AF730Cx4V34Tnm-64" style="edgeStyle=orthogonalEdgeStyle;rounded=0;orthogonalLoop=1;jettySize=auto;html=1;exitX=0.5;exitY=1;exitDx=0;exitDy=0;entryX=0.5;entryY=0;entryDx=0;entryDy=0;" parent="1" source="QuA0I-AF730Cx4V34Tnm-35" target="QuA0I-AF730Cx4V34Tnm-62" edge="1">
          <mxGeometry relative="1" as="geometry"/>
        </mxCell>
        <mxCell id="QuA0I-AF730Cx4V34Tnm-35" value="&lt;span style=&quot;font-size: 14px&quot;&gt;user: input demands&lt;/span&gt;" style="shape=parallelogram;perimeter=parallelogramPerimeter;whiteSpace=wrap;html=1;" parent="1" vertex="1">
          <mxGeometry x="363" y="-1230" width="182" height="53" as="geometry"/>
        </mxCell>
        <mxCell id="QuA0I-AF730Cx4V34Tnm-36" value="&lt;span style=&quot;font-size: 14px&quot;&gt;&amp;nbsp; &amp;nbsp;robot:give hotel list &lt;br&gt;&amp;nbsp; &amp;nbsp;and give example&lt;br&gt;&amp;nbsp;to user&lt;/span&gt;" style="shape=parallelogram;perimeter=parallelogramPerimeter;whiteSpace=wrap;html=1;" parent="1" vertex="1">
          <mxGeometry x="769.5" y="-776.5" width="182" height="53" as="geometry"/>
        </mxCell>
        <mxCell id="QuA0I-AF730Cx4V34Tnm-37" value="&lt;span style=&quot;font-size: 14px&quot;&gt;robot:output hotels &lt;br&gt;list and confirm&lt;/span&gt;" style="shape=parallelogram;perimeter=parallelogramPerimeter;whiteSpace=wrap;html=1;" parent="1" vertex="1">
          <mxGeometry x="573" y="-659.5" width="182" height="53" as="geometry"/>
        </mxCell>
        <mxCell id="QuA0I-AF730Cx4V34Tnm-38" style="edgeStyle=orthogonalEdgeStyle;rounded=0;orthogonalLoop=1;jettySize=auto;html=1;exitX=0;exitY=0.5;exitDx=0;exitDy=0;entryX=0;entryY=0.25;entryDx=0;entryDy=0;" parent="1" source="QuA0I-AF730Cx4V34Tnm-39" target="QuA0I-AF730Cx4V34Tnm-35" edge="1">
          <mxGeometry relative="1" as="geometry">
            <Array as="points">
              <mxPoint x="-66" y="-780"/>
              <mxPoint x="-66" y="-1213"/>
            </Array>
          </mxGeometry>
        </mxCell>
        <mxCell id="QuA0I-AF730Cx4V34Tnm-39" value="&lt;span style=&quot;font-size: 14px&quot;&gt;robot: ask 3 and &lt;br&gt;give example&amp;nbsp;&lt;/span&gt;" style="shape=parallelogram;perimeter=parallelogramPerimeter;whiteSpace=wrap;html=1;" parent="1" vertex="1">
          <mxGeometry x="-37" y="-806.5" width="160" height="53" as="geometry"/>
        </mxCell>
        <mxCell id="QuA0I-AF730Cx4V34Tnm-40" style="edgeStyle=orthogonalEdgeStyle;rounded=0;orthogonalLoop=1;jettySize=auto;html=1;exitX=0;exitY=0.5;exitDx=0;exitDy=0;entryX=0;entryY=0.25;entryDx=0;entryDy=0;" parent="1" source="QuA0I-AF730Cx4V34Tnm-41" target="QuA0I-AF730Cx4V34Tnm-35" edge="1">
          <mxGeometry relative="1" as="geometry">
            <Array as="points">
              <mxPoint x="-66" y="-702"/>
              <mxPoint x="-66" y="-1213"/>
            </Array>
          </mxGeometry>
        </mxCell>
        <mxCell id="QuA0I-AF730Cx4V34Tnm-41" value="&lt;span style=&quot;font-size: 14px&quot;&gt;robot: ask 4 and&lt;br&gt;give example&lt;br&gt;&lt;/span&gt;" style="shape=parallelogram;perimeter=parallelogramPerimeter;whiteSpace=wrap;html=1;" parent="1" vertex="1">
          <mxGeometry x="-37" y="-729" width="160" height="53" as="geometry"/>
        </mxCell>
        <mxCell id="QuA0I-AF730Cx4V34Tnm-42" value="&lt;span style=&quot;font-size: 14px&quot;&gt;robot: ask 5&amp;nbsp;&lt;/span&gt;&lt;span style=&quot;font-size: 14px&quot;&gt;and&lt;/span&gt;&lt;br style=&quot;font-size: 14px&quot;&gt;&lt;span style=&quot;font-size: 14px&quot;&gt;give example&lt;/span&gt;" style="shape=parallelogram;perimeter=parallelogramPerimeter;whiteSpace=wrap;html=1;" parent="1" vertex="1">
          <mxGeometry x="-36" y="-649.5" width="160" height="53" as="geometry"/>
        </mxCell>
        <mxCell id="QuA0I-AF730Cx4V34Tnm-43" value="&lt;span style=&quot;font-size: 14px&quot;&gt;robot: ask 6&amp;nbsp;&lt;/span&gt;&lt;span style=&quot;font-size: 14px&quot;&gt;and&lt;/span&gt;&lt;br style=&quot;font-size: 14px&quot;&gt;&lt;span style=&quot;font-size: 14px&quot;&gt;give example&lt;/span&gt;" style="shape=parallelogram;perimeter=parallelogramPerimeter;whiteSpace=wrap;html=1;" parent="1" vertex="1">
          <mxGeometry x="-37" y="-567" width="160" height="53" as="geometry"/>
        </mxCell>
        <mxCell id="QuA0I-AF730Cx4V34Tnm-44" value="" style="edgeStyle=orthogonalEdgeStyle;rounded=0;orthogonalLoop=1;jettySize=auto;html=1;" parent="1" source="QuA0I-AF730Cx4V34Tnm-45" target="QuA0I-AF730Cx4V34Tnm-47" edge="1">
          <mxGeometry relative="1" as="geometry"/>
        </mxCell>
        <mxCell id="QuA0I-AF730Cx4V34Tnm-45" value="&lt;span style=&quot;font-size: 14px&quot;&gt;robot: repeat and&lt;br&gt;&amp;nbsp;confim&lt;/span&gt;" style="shape=parallelogram;perimeter=parallelogramPerimeter;whiteSpace=wrap;html=1;" parent="1" vertex="1">
          <mxGeometry x="374.5" y="-782" width="160" height="53" as="geometry"/>
        </mxCell>
        <mxCell id="QuA0I-AF730Cx4V34Tnm-46" value="" style="edgeStyle=orthogonalEdgeStyle;rounded=0;orthogonalLoop=1;jettySize=auto;html=1;" parent="1" source="QuA0I-AF730Cx4V34Tnm-47" target="QuA0I-AF730Cx4V34Tnm-30" edge="1">
          <mxGeometry relative="1" as="geometry"/>
        </mxCell>
        <mxCell id="QuA0I-AF730Cx4V34Tnm-47" value="&lt;span style=&quot;font-size: 14px&quot;&gt;user: input confirm&lt;/span&gt;" style="shape=parallelogram;perimeter=parallelogramPerimeter;whiteSpace=wrap;html=1;" parent="1" vertex="1">
          <mxGeometry x="374" y="-659.5" width="160" height="53" as="geometry"/>
        </mxCell>
        <mxCell id="QuA0I-AF730Cx4V34Tnm-48" value="&lt;font style=&quot;font-size: 14px&quot;&gt;stop&lt;/font&gt;" style="strokeWidth=2;html=1;shape=mxgraph.flowchart.terminator;whiteSpace=wrap;" parent="1" vertex="1">
          <mxGeometry x="282" y="-356.5" width="100" height="60" as="geometry"/>
        </mxCell>
        <mxCell id="QuA0I-AF730Cx4V34Tnm-49" style="edgeStyle=orthogonalEdgeStyle;rounded=0;orthogonalLoop=1;jettySize=auto;html=1;exitX=0.5;exitY=1;exitDx=0;exitDy=0;entryX=0.5;entryY=0;entryDx=0;entryDy=0;" parent="1" source="QuA0I-AF730Cx4V34Tnm-50" target="QuA0I-AF730Cx4V34Tnm-14" edge="1">
          <mxGeometry relative="1" as="geometry"/>
        </mxCell>
        <mxCell id="QuA0I-AF730Cx4V34Tnm-50" value="&lt;font style=&quot;font-size: 14px&quot;&gt;extract values and update slots&lt;/font&gt;" style="rounded=1;whiteSpace=wrap;html=1;" parent="1" vertex="1">
          <mxGeometry x="382" y="-1026.6568747127758" width="144" height="50" as="geometry"/>
        </mxCell>
        <mxCell id="QuA0I-AF730Cx4V34Tnm-51" style="edgeStyle=orthogonalEdgeStyle;rounded=0;orthogonalLoop=1;jettySize=auto;html=1;exitX=0.5;exitY=1;exitDx=0;exitDy=0;entryX=1;entryY=0.5;entryDx=0;entryDy=0;" parent="1" source="QuA0I-AF730Cx4V34Tnm-53" target="QuA0I-AF730Cx4V34Tnm-39" edge="1">
          <mxGeometry relative="1" as="geometry">
            <Array as="points">
              <mxPoint x="212" y="-779.5"/>
              <mxPoint x="113" y="-779.5"/>
            </Array>
          </mxGeometry>
        </mxCell>
        <mxCell id="QuA0I-AF730Cx4V34Tnm-52" value="no 3" style="text;html=1;resizable=0;points=[];align=center;verticalAlign=middle;labelBackgroundColor=#ffffff;" parent="QuA0I-AF730Cx4V34Tnm-51" vertex="1" connectable="0">
          <mxGeometry x="0.1125" relative="1" as="geometry">
            <mxPoint as="offset"/>
          </mxGeometry>
        </mxCell>
        <mxCell id="QuA0I-AF730Cx4V34Tnm-53" value="&lt;font style=&quot;font-size: 14px&quot;&gt;slot 3, 4, 5, 6?&lt;br&gt;&lt;/font&gt;" style="rhombus;whiteSpace=wrap;html=1;" parent="1" vertex="1">
          <mxGeometry x="133" y="-893" width="157" height="60" as="geometry"/>
        </mxCell>
        <mxCell id="QuA0I-AF730Cx4V34Tnm-54" style="edgeStyle=orthogonalEdgeStyle;rounded=0;orthogonalLoop=1;jettySize=auto;html=1;exitX=0.5;exitY=0;exitDx=0;exitDy=0;entryX=0;entryY=0.25;entryDx=0;entryDy=0;" parent="1" source="QuA0I-AF730Cx4V34Tnm-55" target="QuA0I-AF730Cx4V34Tnm-35" edge="1">
          <mxGeometry relative="1" as="geometry">
            <Array as="points">
              <mxPoint x="103" y="-1213"/>
            </Array>
          </mxGeometry>
        </mxCell>
        <mxCell id="QuA0I-AF730Cx4V34Tnm-55" value="&lt;span style=&quot;font-size: 14px ; white-space: normal&quot;&gt;&amp;nbsp; &amp;nbsp;robot: ask and give examples &lt;br&gt;to user&lt;/span&gt;" style="shape=parallelogram;perimeter=parallelogramPerimeter;whiteSpace=wrap;html=1;" parent="1" vertex="1">
          <mxGeometry x="13" y="-1030.5" width="180" height="58" as="geometry"/>
        </mxCell>
        <mxCell id="QuA0I-AF730Cx4V34Tnm-56" value="&lt;font style=&quot;font-size: 14px&quot;&gt;slot 2?&lt;br&gt;&lt;/font&gt;" style="rhombus;whiteSpace=wrap;html=1;" parent="1" vertex="1">
          <mxGeometry x="669.5" y="-893" width="157" height="60" as="geometry"/>
        </mxCell>
        <mxCell id="QuA0I-AF730Cx4V34Tnm-57" style="edgeStyle=orthogonalEdgeStyle;rounded=0;orthogonalLoop=1;jettySize=auto;html=1;exitX=0;exitY=0.5;exitDx=0;exitDy=0;entryX=1;entryY=0.5;entryDx=0;entryDy=0;" parent="1" source="QuA0I-AF730Cx4V34Tnm-58" target="QuA0I-AF730Cx4V34Tnm-47" edge="1">
          <mxGeometry relative="1" as="geometry"/>
        </mxCell>
        <mxCell id="QuA0I-AF730Cx4V34Tnm-58" value="&lt;span style=&quot;font-size: 14px&quot;&gt;&amp;nbsp; &amp;nbsp;robot:give example answers (yes or no or change)&lt;/span&gt;" style="shape=parallelogram;perimeter=parallelogramPerimeter;whiteSpace=wrap;html=1;" parent="1" vertex="1">
          <mxGeometry x="613" y="-539" width="182" height="50" as="geometry"/>
        </mxCell>
        <mxCell id="QuA0I-AF730Cx4V34Tnm-63" style="edgeStyle=orthogonalEdgeStyle;rounded=0;orthogonalLoop=1;jettySize=auto;html=1;exitX=0.5;exitY=1;exitDx=0;exitDy=0;" parent="1" source="QuA0I-AF730Cx4V34Tnm-59" target="QuA0I-AF730Cx4V34Tnm-35" edge="1">
          <mxGeometry relative="1" as="geometry"/>
        </mxCell>
        <mxCell id="QuA0I-AF730Cx4V34Tnm-59" value="&lt;font style=&quot;font-size: 14px&quot;&gt;&amp;nbsp; &amp;nbsp;robot:&amp;nbsp;&lt;/font&gt;&lt;span style=&quot;font-size: 14px&quot;&gt;query demands&lt;br&gt;&amp;nbsp;and offer hotels list&lt;/span&gt;" style="shape=parallelogram;perimeter=parallelogramPerimeter;whiteSpace=wrap;html=1;" parent="1" vertex="1">
          <mxGeometry x="363" y="-1328.4285714285713" width="182" height="53" as="geometry"/>
        </mxCell>
        <mxCell id="QuA0I-AF730Cx4V34Tnm-65" value="no" style="edgeStyle=orthogonalEdgeStyle;rounded=0;orthogonalLoop=1;jettySize=auto;html=1;exitX=0.5;exitY=1;exitDx=0;exitDy=0;entryX=0.5;entryY=0;entryDx=0;entryDy=0;" parent="1" source="QuA0I-AF730Cx4V34Tnm-62" target="QuA0I-AF730Cx4V34Tnm-50" edge="1">
          <mxGeometry x="-0.0698" relative="1" as="geometry">
            <mxPoint as="offset"/>
          </mxGeometry>
        </mxCell>
        <mxCell id="QuA0I-AF730Cx4V34Tnm-67" value="yes" style="edgeStyle=orthogonalEdgeStyle;rounded=0;orthogonalLoop=1;jettySize=auto;html=1;exitX=1;exitY=0.5;exitDx=0;exitDy=0;entryX=0;entryY=0.5;entryDx=0;entryDy=0;entryPerimeter=0;" parent="1" source="QuA0I-AF730Cx4V34Tnm-62" target="QuA0I-AF730Cx4V34Tnm-66" edge="1">
          <mxGeometry relative="1" as="geometry"/>
        </mxCell>
        <mxCell id="QuA0I-AF730Cx4V34Tnm-62" value="&lt;font style=&quot;font-size: 14px&quot;&gt;give up?&lt;br&gt;&lt;/font&gt;" style="rhombus;whiteSpace=wrap;html=1;" parent="1" vertex="1">
          <mxGeometry x="375" y="-1130" width="157" height="60" as="geometry"/>
        </mxCell>
        <mxCell id="QuA0I-AF730Cx4V34Tnm-66" value="&lt;font style=&quot;font-size: 14px&quot;&gt;stop&lt;/font&gt;" style="strokeWidth=2;html=1;shape=mxgraph.flowchart.terminator;whiteSpace=wrap;" parent="1" vertex="1">
          <mxGeometry x="619.5" y="-1130" width="100" height="60" as="geometry"/>
        </mxCell>
        <mxCell id="QuA0I-AF730Cx4V34Tnm-68" value="&lt;font style=&quot;font-size: 14px&quot;&gt;stop&lt;/font&gt;" style="strokeWidth=2;html=1;shape=mxgraph.flowchart.terminator;whiteSpace=wrap;" parent="1" vertex="1">
          <mxGeometry x="526.5" y="-356.5" width="100" height="60" as="geometry"/>
        </mxCell>
      </root>
    </mxGraphModel>
  </diagram>
</mxfile>
